<svg width="15" height="16" viewBox="0 0 15 16" fill="none" xmlns="http://www.w3.org/2000/svg">
<path d="M13.5 14.5355C13.5 13.4888 13.5 12.9655 13.3708 12.5397C13.08 11.5809 12.3297 10.8305 11.3709 10.5397C10.945 10.4105 10.4217 10.4105 9.375 10.4105H5.625C4.57833 10.4105 4.05499 10.4105 3.62914 10.5397C2.67034 10.8305 1.92003 11.5809 1.62918 12.5397C1.5 12.9655 1.5 13.4888 1.5 14.5355M10.875 4.41052C10.875 6.27448 9.36396 7.78552 7.5 7.78552C5.63604 7.78552 4.125 6.27448 4.125 4.41052C4.125 2.54656 5.63604 1.03552 7.5 1.03552C9.36396 1.03552 10.875 2.54656 10.875 4.41052Z" stroke="#23262A" stroke-width="1.5" stroke-linecap="round" stroke-linejoin="round"/>
</svg>
